<svg xmlns="http://www.w3.org/2000/svg" xmlns:xlink="http://www.w3.org/1999/xlink" width="231" height="43" viewBox="0 0 231 43">
  <defs>
    <clipPath id="clip-path">
      <rect id="Rectangle_2272" data-name="Rectangle 2272" width="231" height="43" fill="#fff" stroke="#707070" stroke-width="1"/>
    </clipPath>
  </defs>
  <g id="advantage-logo-desktop" clip-path="url(#clip-path)">
    <g id="Group_390" data-name="Group 390" transform="translate(-6811.879 -3256.303)">
      <path id="Path_215" data-name="Path 215" d="M382.17,412.748l-.985,1.139a2.9,2.9,0,0,0,2.114.832,2.169,2.169,0,0,0,2.424-2.178c0-2.32-2.9-1.541-2.9-2.748,0-.5.541-.681.933-.681a1.31,1.31,0,0,1,1,.438l.951-1.091a2.753,2.753,0,0,0-1.928-.693,2.195,2.195,0,0,0-2.4,2.15c0,2.207,2.948,1.552,2.948,2.768,0,.467-.51.69-.96.69a1.513,1.513,0,0,1-1.207-.624m-1.786-4.814h-4.273v6.619h4.43v-1.347h-3.047v-1.345h2.725v-1.347h-2.725V409.28h2.886Zm-10.743,3.31a3.265,3.265,0,0,0,3.393,3.478,2.7,2.7,0,0,0,2.272-1.148l-1.155-.907a1.483,1.483,0,0,1-1.3.709,2.162,2.162,0,0,1,.045-4.262,1.457,1.457,0,0,1,1.191.541l1.067-.916a2.641,2.641,0,0,0-2.123-.972,3.267,3.267,0,0,0-3.393,3.477m-.925-3.309h-1.386v6.619h1.386Zm-6.659,0h-1.582l2.514,6.619h1.11l2.594-6.619h-1.483l-1.581,4.338H363.6Zm-4.424,1.233c.51,0,1.077.1,1.077.766,0,.721-.658.739-1.165.739h-.815v-1.508Zm.143-1.233h-2.433v6.619h1.386v-2.646h.683l1.314,2.646h1.659l-1.6-2.8a1.684,1.684,0,0,0,1.358-1.813c0-1.541-1.083-2.008-2.371-2.008m-3.7,0H349.8v6.619h4.43v-1.347h-3.044v-1.345h2.72v-1.347h-2.725v-1.234h2.886Zm-8.908,4.814-.985,1.139a2.9,2.9,0,0,0,2.113.832,2.169,2.169,0,0,0,2.424-2.178c0-2.32-2.9-1.541-2.9-2.748,0-.5.541-.681.933-.681a1.312,1.312,0,0,1,1,.438l.951-1.091a2.754,2.754,0,0,0-1.928-.693,2.2,2.2,0,0,0-2.4,2.15c0,2.207,2.949,1.552,2.949,2.768,0,.467-.51.69-.96.69a1.513,1.513,0,0,1-1.207-.624m-8.5-4.814h-1.883v6.618h1.388v-4.715h.018l2.745,4.711h1.812v-6.625h-1.384v4.594h-.019Zm-8.166,3.309a1.955,1.955,0,1,1,.506,1.5,1.961,1.961,0,0,1-.506-1.5m-1.437,0a3.393,3.393,0,1,0,3.392-3.477,3.264,3.264,0,0,0-3.392,3.477m-.925-3.309h-1.386v6.618h1.386Zm-7.042,1.289h1.794v5.329h1.386v-5.329h1.8v-1.3H319.1Zm-3.349,2.692.766-2.057.773,2.057Zm.23-3.982-2.718,6.619h1.531l.523-1.4h2.444l.541,1.4h1.564l-2.736-6.619Zm-8.356,0h-2.1v6.619h1.386v-5.077h.019l1.589,5.077h1.058l1.659-5.077h.018v5.077h1.384v-6.628H310.55l-1.456,4.319h-.018Zm-3.365,0h-4.271v6.619h4.43v-1.347h-3.052v-1.345h2.728v-1.347h-2.728v-1.234h2.888Zm-7.784,1.233c.51,0,1.076.1,1.076.766,0,.721-.657.739-1.164.739h-.817v-1.508Zm.143-1.233h-2.435v6.619h1.386v-2.646h.684l1.313,2.646h1.659l-1.6-2.8a1.686,1.686,0,0,0,1.359-1.813c0-1.541-1.083-2.008-2.371-2.008m-8.854,3.309a3.266,3.266,0,0,0,3.394,3.478,2.7,2.7,0,0,0,2.273-1.148l-1.155-.907a1.483,1.483,0,0,1-1.3.709,2.161,2.161,0,0,1,.043-4.262,1.453,1.453,0,0,1,1.189.541l1.065-.916a2.636,2.636,0,0,0-2.121-.972,3.266,3.266,0,0,0-3.394,3.477m-7.859,1.43c0-.5.373-.72.72-.944l1.11,1.276a1.425,1.425,0,0,1-.985.487.825.825,0,0,1-.843-.814m1.767-3.19c0,.375-.435.684-.711.852-.213-.208-.524-.51-.524-.832a.591.591,0,0,1,.614-.618.582.582,0,0,1,.621.6m-3.205,3.256a2.024,2.024,0,0,0,2.229,1.98,2.334,2.334,0,0,0,1.848-.8l.524.628h1.714l-1.4-1.56,1.323-1.852h-1.544l-.612.879-.809-.908a2.011,2.011,0,0,0,1.164-1.719,1.631,1.631,0,0,0-1.83-1.627c-1,0-1.962.486-1.962,1.683a2.081,2.081,0,0,0,.692,1.487,1.942,1.942,0,0,0-1.332,1.805m-5.706-4.82h-1.386v6.619h3.956V413.2h-2.57Zm-6.181,3.982.766-2.057.766,2.057Zm.23-3.982-2.715,6.619h1.531l.524-1.4h2.442l.542,1.4h1.562l-2.736-6.619Zm-5.531,1.233c.51,0,1.074.1,1.074.766,0,.721-.656.739-1.162.739h-.818v-1.5Zm.143-1.233h-2.433v6.619h1.384V411.9h.684l1.316,2.646h1.659l-1.6-2.8a1.685,1.685,0,0,0,1.359-1.813c0-1.542-1.083-2.008-2.371-2.008m-3.7,0h-4.271v6.619h4.432V413.2h-3.046v-1.345h2.727v-1.347h-2.727v-1.234h2.885Zm-9.678,0h-1.882v6.619h1.384v-4.7h.018l2.745,4.711h1.813v-6.625h-1.386v4.594h-.018Zm-7.079,0h-1.384v4.067a2.651,2.651,0,1,0,5.3,0v-4.067h-1.384v4.01a1.276,1.276,0,1,1-2.533,0Zm-2.378,0h-4.22v6.619h1.386v-2.581h2.62V410.62h-2.62v-1.346h2.834Zm4.976-16.874a3.191,3.191,0,0,1-.14.989,4.318,4.318,0,0,1-4.2,2.861,2.723,2.723,0,0,1-2.9-2.965c0-3.318,3.851-3.922,7.241-3.851Zm.5,5.757h2.791a28.445,28.445,0,0,1-.248-4.1v-6.393c0-3.427-1.276-6.995-6.536-6.995a11.062,11.062,0,0,0-5.65,1.484l.7,2.084a8.258,8.258,0,0,1,4.488-1.276c3.5-.034,3.885,2.543,3.885,3.956v.353c-6.607-.034-10.278,2.224-10.278,6.358a4.871,4.871,0,0,0,5.232,4.911,6.316,6.316,0,0,0,5.232-2.546h.106Zm19.178-7.17a5.36,5.36,0,0,1-.139,1.342,4.712,4.712,0,0,1-4.558,3.709c-3.318,0-5.05-2.862-5.05-6.36,0-3.742,1.914-6.569,5.121-6.569a4.578,4.578,0,0,1,4.488,3.573,5.714,5.714,0,0,1,.139,1.342Zm.461,7.17h2.791c-.107-1.164-.142-2.9-.142-4.414v-20.66h-3.11v10.175h-.07a5.682,5.682,0,0,0-5.156-2.58c-4.134,0-7.7,3.463-7.666,9.187,0,5.195,3.214,8.692,7.347,8.692a6.269,6.269,0,0,0,5.793-3.357h.072Zm15.118,0,6.712-17.1h-3.25l-3.318,9.57c-.564,1.59-1.06,3-1.448,4.416h-.1c-.353-1.414-.813-2.826-1.378-4.416l-3.355-9.57h-3.318l6.5,17.1Zm18.159-5.757a3.158,3.158,0,0,1-.142.989,4.313,4.313,0,0,1-4.2,2.861,2.723,2.723,0,0,1-2.9-2.965c0-3.318,3.851-3.922,7.241-3.851Zm.5,5.757h2.791a28.457,28.457,0,0,1-.255-4.1v-6.393c0-3.427-1.27-6.995-6.533-6.995a11.067,11.067,0,0,0-5.653,1.484l.706,2.084A8.249,8.249,0,0,1,293,381.618c3.5-.034,3.885,2.543,3.885,3.956v.353c-6.606-.034-10.279,2.224-10.279,6.358a4.87,4.87,0,0,0,5.232,4.911,6.312,6.312,0,0,0,5.232-2.546h.106Zm18.968,0h3.11V386.6c0-5.87-3.674-7.273-6.042-7.273a6.333,6.333,0,0,0-5.651,3.179h-.071l-.177-2.791h-2.754c.1,1.413.14,2.826.14,4.627v12.469h3.108V386.5a4.655,4.655,0,0,1,.211-1.448,4.485,4.485,0,0,1,4.169-3.181c2.935,0,3.956,2.331,3.956,5.086Zm11.767-14.729h4.451v-2.367h-4.451v-4.1l-3.039.954v3.143H322.5v2.367h2.649v9.324a6.677,6.677,0,0,0,1.2,4.488,4.437,4.437,0,0,0,3.356,1.308,8.443,8.443,0,0,0,2.755-.426l-.142-2.366a5.842,5.842,0,0,1-1.8.212c-1.73,0-2.33-1.2-2.33-3.318Zm16.953,8.971a3.22,3.22,0,0,1-.139.989A4.319,4.319,0,0,1,340.8,394.9a2.722,2.722,0,0,1-2.9-2.965c0-3.318,3.851-3.922,7.24-3.851Zm.5,5.757h2.789a28.493,28.493,0,0,1-.245-4.1v-6.393c0-3.427-1.276-6.995-6.536-6.995A11.075,11.075,0,0,0,336,380.81l.707,2.084a8.251,8.251,0,0,1,4.486-1.276c3.5-.034,3.885,2.543,3.885,3.956v.353c-6.6-.034-10.281,2.224-10.281,6.358a4.872,4.872,0,0,0,5.232,4.911,6.309,6.309,0,0,0,5.232-2.546h.108Zm19.039-7.31a5,5,0,0,1-.255,1.659,4.466,4.466,0,0,1-4.308,3.214c-3.318,0-5.05-2.824-5.05-6.145,0-3.991,2.118-6.5,5.086-6.5a4.431,4.431,0,0,1,4.338,3.318,4.279,4.279,0,0,1,.177,1.377Zm3.108-5.123c0-2.082.034-3.46.142-4.662h-2.757l-.106,2.544H365a5.711,5.711,0,0,0-5.334-2.935c-3.956,0-7.736,3.25-7.736,9.043,0,4.768,3.036,8.371,7.273,8.371a6.062,6.062,0,0,0,5.44-2.861h.07v1.871c0,4.338-2.331,6.006-5.51,6.006a9.293,9.293,0,0,1-5.016-1.378h-119.8v2.417h119.05a11.069,11.069,0,0,0,5.662,1.4,10.105,10.105,0,0,0,5.313-1.4h21.4v-2.417h-19.14A13.231,13.231,0,0,0,367.8,394.3Zm15.965,2.19h-9.049c.248-2.153,1.589-5.05,4.768-5.05,3.463,0,4.309,3.108,4.275,5.05m3,.78c0-3.145-1.449-8.055-7.031-8.055-4.976,0-8.051,4.064-8.051,9.256,0,5.121,3.177,8.618,8.406,8.618a13.909,13.909,0,0,0,5.721-1.095l-.566-2.19a11.8,11.8,0,0,1-4.731.846c-3.107,0-5.759-1.73-5.827-5.932l11.975.035a8.081,8.081,0,0,0,.1-1.483" transform="translate(6656.126 2884.565)" fill="#1a1818"/>
      <path id="Path_216" data-name="Path 216" d="M335.535,344.944c-10.69,5.477-15.521,5.243-28.513,5.885a52.541,52.541,0,0,0-11.882,1.8c2.75-2.715,10.889-8.15,15.393-9.473,4.966-1.458,12.211-.656,16.824.5a43.211,43.211,0,0,0,8.178,1.293m-43.052,14.016c3.839-1.688,9.9-3.279,21.819-3.554a46.3,46.3,0,0,0,26.807-9.853c.541.532-1.139,3.638-2.623,6.321a23.015,23.015,0,0,1-8.663,9.6c-4.791,3.085-11.2,2.99-18.674,2.1-6.814-.809-16.74-3.987-18.666-4.62m49.942-17.837-.453.264c-4.328,1.809-11.337-.545-14.509-1.587-3.381-1.108-9.127-2.562-18.5.315-8.756,2.68-17.339,11.356-20.926,15.312a39.044,39.044,0,0,0-9.315,6.791c-4.466,4.338-4.837,6.2-4.837,6.2l.675,7.308a37.546,37.546,0,0,1,3.788-7.061,18.613,18.613,0,0,1,7.823-6.234c2.368-.651,16.236,3.52,23.915,4.9s13.949.893,18.578-.819,7.625-5.372,10.453-9.706c2.156-3.307,4.572-11.148,5.6-14.674,1.751-2.148,1.238-3.076-2.284-1.005" transform="translate(6538.796 2923.554)" fill="#195829"/>
    </g>
  </g>
</svg>
