<svg width="598" height="116" viewBox="0 0 598 116" fill="none" xmlns="http://www.w3.org/2000/svg">
<path d="M537.5 0C537.9 1.3 538.3 2.5002 538.7 3.7002C542.9 16.9001 547.2 30.2005 551.5 43.4004C551.7 44.0001 551.9 44.0996 552.5 44.0996H597.1V44.2998H597.9C597.6 44.4997 597.5 44.6002 597.4 44.7002C585.3 53.5002 573.2 62.2996 561.1 71.0996C560.7 71.3996 560.6 71.7002 560.8 72.2002C565.5 86.5001 570.1 100.7 574.7 115C574.8 115.2 574.8 115.3 574.9 115.7C573.4 114.6 572.1 113.6 570.7 112.6C561.1 105.6 551.6 98.7002 542 91.7002C540.7 90.7002 539.3 89.7002 538 88.7002C537.7 88.4002 537.4 88.4002 537.1 88.7002L503.2 113.4C502.2 114.1 501.2 114.9 500.1 115.5C504.8 100.8 509.5 86.2 514.3 71.5C501.8 62.4 489.4 53.2998 477 44.2998C477.1 44.2998 477.1 44.3 477.1 44.2002H522.4C523 44.2002 523.2 44.0999 523.4 43.5C528 29.2 532.6 14.9998 537.2 0.799805C537.3 0.599878 537.4 0.399854 537.5 0ZM537.5 26.5C537.4 26.7999 537.4 26.8998 537.3 27.0996C534.7 35.1996 532.1 43.1999 529.5 51.2998C529.3 51.9998 529 52.2998 528.2 52.2998H502.3C502.2 52.2999 502.2 52.4004 502.2 52.4004C509.4 57.7003 516.7 62.9003 523.9 68.2002C521.1 76.8002 518.3 85.3 515.5 94C515.8 93.8 516 93.6996 516.1 93.5996C523 88.5996 529.8 83.5996 536.7 78.5996C537.2 78.2 537.6 78.2 538.1 78.5996C544.199 83.0995 550.4 87.5997 556.6 92.0996C557.5 92.6996 558.3 93.3 559.3 94C559.1 93.6 559.1 93.2996 559 93.0996C556.4 84.9999 553.8 77.0001 551.2 68.9004C551 68.5005 551.1 68.2003 551.5 67.9004C558.3 63.0004 565.2 58 572 53C572.2 52.8 572.4 52.6998 572.8 52.2998C572.703 52.2997 572.7 52.2053 572.7 52.2002H546.6C546 52.2002 545.8 52.0999 545.6 51.5C543 43.4001 540.4 35.3001 537.8 27.2002C537.7 27.0002 537.6 26.8 537.5 26.5ZM0 45C0.3 45.1 0.600391 45.0996 0.900391 45.0996H38.5V54.5996H11.2002V61.0996H37.0996V70.5996H11.2002V83.4004H0V45ZM222 44.0996C222.5 44.0996 222.8 44.2002 223.1 44.7002C227.2 52.7002 231.3 60.6 235.5 68.5C237.8 73 240.2 77.5 242.7 82C242.8 82.2 242.9 82.4002 243 82.7002H232.3C231.8 82.7001 231.6 82.4996 231.4 82.0996C230.3 79.8997 229.1 77.6999 228 75.5C227.8 75.1001 227.6 75 227.2 75H203.7C203.3 75 203.1 75.2001 202.9 75.5C201.7 77.6998 200.6 79.8998 199.4 82.0996C199.3 82.2996 199 82.5996 198.8 82.5996H187.9C188 82.3 188.1 82.1002 188.2 81.9004C192.9 73.1004 197.5 64.2999 202.1 55.5C203.9 51.9 205.8 48.3002 207.7 44.7002C207.9 44.3003 208.1 44.0997 208.6 44.0996H222ZM83.5 44.0996C88.8999 44.0996 93.1995 47.5999 94.0996 52.7998C94.1996 53.2998 94.2002 53.9004 94.2002 54.4004V72.4004C94.2 77.3001 90.8001 81.3003 85.9004 82.4004C85.2004 82.5004 84.4998 82.5996 83.7998 82.5996H52.5C46.7001 82.5996 42.0002 78.2002 42 72.4004V54.4004C42 48.6004 46.6 44.1996 52.5 44.0996H83.5ZM138.5 44.0996C144.7 44.0996 149.3 48.6 149.5 54.5V72.2002C149.5 77.5 145.7 81.6999 140.2 82.5C139.8 82.6 139.3 82.5996 138.9 82.5996H107.9C102.5 82.5996 98.2998 79.1996 97.2998 74.0996C97.0999 73.4997 97.0996 72.8997 97.0996 72.2998V54.5996C97.0998 49.2998 100.6 45.1002 106 44.2002C106.8 44.1002 107.7 44.0996 108.5 44.0996H138.5ZM198.7 53.5996H182.6V82.5996H170.9V53.7002H154.8V44.0996H198.7V53.5996ZM282.2 44.2002C287.5 44.2003 292.1 48.3005 292.4 53.9004C292.5 55.4003 292.4 56.9005 292.4 58.4004H281.1C280.8 57.5004 280.5 56.7 280.1 56C279.1 54.4001 277.5 53.5 275.6 53.5H259.7C256.8 53.5 254.401 55.7998 254.4 58.5996V68.0996C254.4 70.9996 256.7 73.2998 259.7 73.2998H275.5C278.1 73.2998 280.2 71.5996 280.8 69.0996C280.8 68.7999 280.801 68.6002 280.9 68.4004H292.4C292.5 71.9003 292.8 75.4005 290.5 78.4004C288.5 81.1002 285.9 82.5996 282.5 82.5996C272.7 82.5996 262.9 82.4996 253.1 82.5996C247.5 82.6994 243.001 78.2 242.9 72.7002C242.8 66.5002 242.9 60.2 242.9 54C243 49.3001 246.5 45.1999 251.3 44.2998C252 44.1998 252.6 44.2002 253.2 44.2002C262.8 44.2002 272.5 44.3002 282.2 44.2002ZM339.1 53.5996H323V82.5996H311.3V53.7002H295.1V44H339.1V53.5996ZM400 44.0996C405 44.0996 409.2 47.1002 410.4 51.7002C410.6 52.6 410.7 53.4999 410.8 54.2998V72.2998C410.8 77.2997 407.3 81.4003 402.4 82.4004C401.7 82.5004 400.9 82.5996 400.1 82.5996H369.3C363.9 82.5995 359.7 79.1996 358.7 74.0996C358.5 73.3997 358.5 72.6999 358.5 72V54.5C358.5 48.6 363.1 44.0996 369.2 44.0996H400ZM434.5 44.0996C434.9 44.0996 435.3 44.2 435.6 44.5996C442.5 52.5996 449.4 60.5 456.3 68.5C456.5 68.7 456.6 68.7996 456.9 69.0996V44.9004C456.9 44.1004 456.9 44.0996 457.8 44.0996H468.4V82.5996H452.7C452.2 82.5996 451.8 82.4996 451.5 82.0996C444.4 73.7997 437.3 65.6003 430.1 57.4004L427.9 54.9004V82.5H416.3V44.0996H434.5ZM354 82.5H343V44H354V82.5ZM59.7002 53.5C56.5002 53.6 54.0996 55.9 54.0996 59V67.7998C54.0996 70.8997 56.3998 73.2996 59.5996 73.2998H76.5C79.5999 73.2998 82.1999 70.9001 82 67.7002C81.9 64.9002 82 62.0998 82 59.2998C82 58.7 82.0003 58.2001 81.9004 57.7002C81.4004 55.3002 79.2 53.5 76.5 53.5H59.7002ZM115 53.5C111.6 53.5 109.2 55.7998 109.2 59.0996V67.5996C109.1 68.1996 109.2 68.7002 109.3 69.2002C109.9 71.6001 112.1 73.2998 114.9 73.2998H131.4C134.9 73.2996 137.3 70.6 137.3 67.7002C137.2 64.7003 137.3 61.8003 137.3 58.9004C137.3 58.6004 137.3 58.3 137.2 58C136.7 55.3 134.4 53.5 131.6 53.5H115ZM376.5 53.4004C373 53.4004 370.6 55.6998 370.6 59.0996V67.5C370.6 70.8 372.8 73.2002 376.2 73.2002C381.8 73.3002 387.5 73.3002 393.1 73.2002C396.3 73.2002 398.6 70.8001 398.6 67.7002V59.0996C398.599 55.6998 396.3 53.4004 392.8 53.4004H376.5ZM590.366 60.5C593.066 60.5002 595.166 62.2 595.866 64.7998C595.866 64.8998 595.966 64.9 595.966 65V66.7998C595.566 68.3997 594.866 69.6996 593.466 70.5996C591.466 71.8995 588.966 71.8001 587.166 70.4004C585.266 69.0004 584.566 66.4998 585.266 64.2998C585.966 61.9999 588.066 60.5 590.366 60.5ZM590.466 61.2002C587.866 61.3002 585.766 63.4 585.766 66C585.766 68.7 587.866 70.7002 590.466 70.7002C593.166 70.7001 595.166 68.7001 595.166 65.9004C595.166 63.3004 593.066 61.2002 590.466 61.2002ZM587.9 63.2998C589.2 63.3998 590.601 63.4 591.9 63.5C592.8 63.6001 593.3 64.1 593.4 64.7998C593.5 65.4998 593.2 65.8998 592 66.2998C593.6 66.7998 593.3 67.7999 593.4 68.7998H592.5C592.2 68.1998 592.2 67.4 591.6 67C591.1 66.6003 590.1 66.6996 589.2 66.5996V68.7998H587.9V63.2998ZM215.3 51.5996C212.5 56.8996 209.8 62.0998 207.1 67.2998H223.5C220.8 61.9999 218.1 56.8996 215.3 51.5996ZM589.3 66C590 66 590.6 66.0004 591.3 65.9004C591.9 65.8004 592.2 65.5 592.3 65C592.3 64.5001 592.1 64.1997 591.4 64.0996C590.7 63.9996 590 64 589.3 64V66Z" fill="black"/>
</svg>
