<?xml version="1.0" encoding="UTF-8" standalone="no"?><!DOCTYPE svg PUBLIC "-//W3C//DTD SVG 1.1//EN" "http://www.w3.org/Graphics/SVG/1.1/DTD/svg11.dtd"><svg width="100%" height="100%" viewBox="0 0 938 217" version="1.1" xmlns="http://www.w3.org/2000/svg" xmlns:xlink="http://www.w3.org/1999/xlink" xml:space="preserve" xmlns:serif="http://www.serif.com/" style="fill-rule:evenodd;clip-rule:evenodd;stroke-linejoin:round;stroke-miterlimit:2;"><g><path d="M46.417,178.283l-12.708,-38.108l-23.563,-23.283l12.458,-11.646l-22.604,-66.521l44.3,42.717c0,0 47.037,-43.363 92.55,-53.413c1.025,-0.217 -26.25,-26.579 -26.25,-26.579l84.517,24.954l19.867,79.6l-23.633,-24.717c0,0 -52.654,33.475 -64.787,86.225l52.079,49.154l-59.733,-16.692l-3.754,14.396l-36.458,-27.088l-32.279,-9Z" style="fill:#5f419a;fill-rule:nonzero;"/><path d="M147.588,38.213c-69.708,22.983 -91.629,66.15 -92.171,66.408l-36.117,-34.196l32.954,94.533c44.579,-75.867 92.25,-103.592 109.242,-112.729l-13.908,-14.017Z" style="fill:#fcdd06;fill-rule:nonzero;"/><path d="M182.092,73.562l-15.946,-16.646c-15.637,8.479 -60.358,37.862 -105.354,116.279l91.592,27.85l-43.037,-39.479c19.8,-52.292 47.404,-70.25 72.746,-88.004Zm-124.517,98.975l0.087,0.025l-0.037,-0.117c-0.017,0.021 -0.033,0.063 -0.05,0.092Z" style="fill:#fcdd06;fill-rule:nonzero;"/><path d="M381.567,40.829l0,138.5l-38.383,0l0,-138.5l38.383,-0Zm-122.071,48.871l107.825,0l0,34.425l-107.825,0l0,-34.425Zm29.083,-48.871l0,138.5l-38.383,0l0,-138.5l38.383,-0Z" style="fill:#5f419a;fill-rule:nonzero;"/><path d="M439.217,129.779c1.912,4.55 4.679,8.375 8.312,11.475c3.629,3.1 7.717,5.438 12.267,7.021c4.55,1.583 9.463,2.375 14.742,2.375c6.592,0 12.367,-0.854 17.308,-2.571c4.95,-1.717 9.304,-3.958 13.058,-6.729c3.758,-2.771 7.087,-5.667 9.996,-8.704l0,40.758c-5.546,4.087 -11.579,7.388 -18.104,9.892c-6.533,2.504 -14.875,3.758 -25.029,3.758c-11.475,0 -21.962,-1.713 -31.458,-5.142c-9.496,-3.433 -17.746,-8.375 -24.733,-14.842c-6.996,-6.463 -12.367,-14.142 -16.125,-23.046c-3.758,-8.908 -5.637,-18.829 -5.637,-29.779c0,-10.95 1.879,-20.871 5.637,-29.775c3.758,-8.904 9.129,-16.588 16.125,-23.05c6.988,-6.463 15.237,-11.413 24.733,-14.842c9.496,-3.425 19.983,-5.142 31.458,-5.142c10.154,0 18.496,1.254 25.029,3.758c6.525,2.508 12.558,5.737 18.104,9.692l0,40.958c-2.908,-3.163 -6.237,-6.1 -9.996,-8.804c-3.754,-2.7 -8.108,-4.913 -13.058,-6.629c-4.942,-1.712 -10.717,-2.571 -17.308,-2.571c-5.279,0 -10.192,0.792 -14.742,2.371c-4.55,1.583 -8.637,3.929 -12.267,7.025c-3.633,3.1 -6.4,6.896 -8.312,11.375c-1.912,4.492 -2.867,9.7 -2.867,15.633c0,5.804 0.954,10.979 2.867,15.533Z" style="fill:#5f419a;fill-rule:nonzero;"/><path d="M526.971,44.996l116.142,0l0,34.429l-38.583,0l0,104.071l-38.779,0l0,-104.071l-38.779,0l0,-34.429Z" style="fill:#5f419a;fill-rule:nonzero;"/><path d="M733.729,122.558l41.35,60.938l-44.908,0l-36.208,-60.938l39.767,0Zm-52.829,-77.562l30.075,0c12.529,0 22.954,1.979 31.262,5.937c8.308,3.954 14.475,9.4 18.5,16.321c4.021,6.925 6.033,15.008 6.033,24.238c0,8.842 -2.012,16.787 -6.033,23.842c-4.025,7.058 -10.192,12.567 -18.5,16.521c-8.308,3.958 -18.733,5.937 -31.262,5.937l-30.075,0l0,-29.479l26.908,0c3.963,0 7.354,-0.596 10.192,-1.783c2.833,-1.183 5.012,-2.896 6.529,-5.146c1.513,-2.242 2.275,-5.142 2.275,-8.7c0,-3.167 -0.762,-5.904 -2.275,-8.212c-1.517,-2.308 -3.696,-4.058 -6.529,-5.246c-2.837,-1.187 -6.229,-1.779 -10.192,-1.779l-26.908,0l0,-32.45Zm13.854,0l0,138.5l-38.383,0l0,-138.5l38.383,0Z" style="fill:#5f419a;fill-rule:nonzero;"/><path d="M823.771,132.842l70.829,0l1.388,28.692l-73.204,0l0.987,-28.692Zm16.821,10.488l2.375,8.708l-16.029,31.458l-43.725,0l75.583,-147.796l75.575,147.796l-43.725,0l-15.829,-30.075l2.179,-9.892l-18.2,-41.55l-18.204,41.35Z" style="fill:#5f419a;fill-rule:nonzero;"/></g></svg>