<?xml version="1.0" encoding="UTF-8" standalone="no"?><!DOCTYPE svg PUBLIC "-//W3C//DTD SVG 1.1//EN" "http://www.w3.org/Graphics/SVG/1.1/DTD/svg11.dtd"><svg width="100%" height="100%" viewBox="0 0 706 223" version="1.1" xmlns="http://www.w3.org/2000/svg" xmlns:xlink="http://www.w3.org/1999/xlink" xml:space="preserve" xmlns:serif="http://www.serif.com/" style="fill-rule:evenodd;clip-rule:evenodd;stroke-linejoin:round;stroke-miterlimit:2;"><g><rect x="230.645" y="51.523" width="23.064" height="100.361" style="fill:#0d0f30;fill-rule:nonzero;"/><path d="M262.339,78.474l20.516,0l0,11.65c3.682,-7.298 11.747,-13.335 24.057,-13.335c14.574,0 24.902,8.704 24.902,28.353l0,46.745l-20.516,0l0,-43.796c0,-9.964 -3.963,-14.739 -13.018,-14.739c-8.772,0 -15.425,5.336 -15.425,16.142l0,42.393l-20.516,0l0,-73.413Z" style="fill:#0d0f30;fill-rule:nonzero;"/><path d="M337.754,128.865l19.101,0c0.851,6.598 4.104,10.388 13.018,10.388c7.926,0 11.605,-2.949 11.605,-8c0,-5.055 -4.386,-7.16 -14.999,-8.704c-19.668,-2.948 -27.31,-8.562 -27.31,-22.88c0,-15.299 14.151,-22.879 29.291,-22.879c16.412,0 28.722,5.895 30.563,22.74l-18.819,0c-1.133,-6.036 -4.527,-8.844 -11.603,-8.844c-6.65,0 -10.472,3.087 -10.472,7.58c0,4.631 3.538,6.456 14.292,8c18.537,2.667 28.725,7.301 28.725,23.02c0,15.863 -11.603,24.145 -31.13,24.145c-19.952,0 -31.555,-8.703 -32.262,-24.566Z" style="fill:#0d0f30;fill-rule:nonzero;"/><path d="M407.935,78.474l20.517,0l0,11.511c4.104,-7.018 12.735,-13.196 23.631,-13.196c18.111,0 32.262,13.335 32.262,37.618l0,1.123c0,24.284 -13.866,37.901 -32.262,37.901c-11.462,0 -19.809,-5.616 -23.631,-12.773l0,36.213l-20.517,0l0,-98.397Zm55.609,37.197l0,-1.123c0,-14.877 -7.357,-22.178 -17.688,-22.178c-10.752,0 -18.112,7.442 -18.112,22.178l0,1.123c0,14.74 7.076,21.897 18.255,21.897c11.318,0 17.545,-7.58 17.545,-21.897Z" style="fill:#0d0f30;fill-rule:nonzero;"/><path d="M488.727,57.419c0,-6.316 5.094,-11.088 11.603,-11.088c6.65,0 11.743,4.772 11.743,11.088c0,6.316 -5.093,11.088 -11.743,11.088c-6.509,0 -11.603,-4.772 -11.603,-11.088Zm1.557,21.056l20.375,0l0,73.413l-20.375,0l0,-73.413Z" style="fill:#0d0f30;fill-rule:nonzero;"/><path d="M519.714,78.474l20.516,0l0,14.037c4.671,-9.826 11.887,-15.019 23.913,-15.16l0,18.95c-15.138,-0.141 -23.913,4.772 -23.913,18.809l0,36.777l-20.516,0l0,-73.413Z" style="fill:#0d0f30;fill-rule:nonzero;"/><path d="M565.416,116.093l0,-1.123c0,-23.161 16.555,-38.18 38.064,-38.18c19.101,0 36.082,11.088 36.082,37.336l0,5.616l-53.345,0c0.564,12.211 7.216,19.23 18.393,19.23c9.48,0 14.151,-4.07 15.425,-10.247l19.386,0c-2.407,15.862 -15.143,24.704 -35.375,24.704c-22.357,0 -38.63,-13.896 -38.63,-37.336Zm54.194,-8.845c-0.708,-11.087 -6.368,-16.421 -16.13,-16.421c-9.198,0 -15.425,6.036 -16.981,16.421l33.111,0Z" style="fill:#0d0f30;fill-rule:nonzero;"/><path d="M172.453,81.633c-1.264,0 -2.511,0.071 -3.74,0.201c-7.698,-17.829 -25.431,-30.311 -46.086,-30.311c-27.703,0 -50.163,22.448 -50.182,50.147c0.046,-2.781 6.395,-12.79 22.72,-12.79c10.542,0 19.338,3.321 23.072,4.514c3.094,0.989 2.652,6.52 4.4,6.464c4.832,-0.155 11.385,-0.583 17.956,-0.635c4.638,-0.036 0.26,7.164 5.095,9.293c5.157,2.27 6.388,2.716 9.253,4.058c12.518,5.866 1.13,15.961 1.13,27.188c0,5.956 5.17,11.939 16.729,12.108c19.24,-0.188 34.78,-15.826 34.78,-35.109c0,-19.4 -15.726,-35.128 -35.127,-35.128Z" style="fill:#0d0f30;fill-rule:nonzero;"/><path d="M73.154,101.714c-0.216,-0.005 -0.432,-0.008 -0.648,-0.008c-14.092,0 -25.47,11.617 -25.081,25.796c0.374,13.667 11.931,24.386 25.603,24.386l49.66,0c0,-27.498 -22.118,-49.827 -49.534,-50.174Z" style="fill:#5b61ab;fill-rule:nonzero;"/><path d="M650.377,144.529c0.959,0 1.458,-0.422 1.458,-1.228l0,-0.038c0,-0.882 -0.537,-1.189 -1.458,-1.189l-1.074,0l0,2.455l1.074,0Zm-2.915,-3.874l2.954,0c1.956,0 3.221,0.805 3.221,2.532l0,0.038c0,1.266 -0.728,1.956 -1.725,2.263l2.225,3.568l-1.918,0l-2.034,-3.261l-0.882,0l0,3.261l-1.841,0l0,-8.401Zm9.896,4.297c0,-4.182 -2.915,-7.098 -6.981,-7.098c-4.067,0 -6.982,2.954 -6.982,7.136c0,4.219 3.07,7.058 6.982,7.058c3.951,0 6.981,-2.916 6.981,-7.096Zm-15.497,0.038c0,-4.719 3.759,-8.517 8.516,-8.517c4.834,0 8.516,3.76 8.516,8.479c0,4.795 -3.759,8.477 -8.516,8.477c-4.718,0 -8.516,-3.644 -8.516,-8.439Z" style="fill:#0d0f30;fill-rule:nonzero;"/></g></svg>