<?xml version="1.0" encoding="UTF-8" standalone="no"?><!DOCTYPE svg PUBLIC "-//W3C//DTD SVG 1.1//EN" "http://www.w3.org/Graphics/SVG/1.1/DTD/svg11.dtd"><svg width="100%" height="100%" viewBox="0 0 1246 488" version="1.1" xmlns="http://www.w3.org/2000/svg" xmlns:xlink="http://www.w3.org/1999/xlink" xml:space="preserve" xmlns:serif="http://www.serif.com/" style="fill-rule:evenodd;clip-rule:evenodd;"><g><g><path d="M37.792,340.562c-13.362,-0.229 -26.418,-4.054 -37.792,-11.071l6.933,-18.483c9.23,6.423 20.127,10.035 31.367,10.396c13.642,0 19.871,-6.771 19.871,-14.183c0,-7.412 -4.25,-12.354 -25.108,-20.117c-22.363,-8.25 -30.221,-18.967 -30.221,-32.829c-0,-17.488 14.121,-33.658 38.75,-33.658c11.133,-0.042 22.108,2.683 31.946,7.925l-6.517,18.129c-7.864,-4.57 -16.698,-7.22 -25.779,-7.733c-12.171,0 -17.762,6.771 -17.762,14.858c0,7.413 6.387,12.033 22.521,17.967c25.779,10.042 33.158,20.283 33.158,35.458c0,20.633 -15.588,33.342 -41.367,33.342Zm-16.262,0.771l9.842,6.608c-3.804,-1.583 -7.479,-3.458 -10.992,-5.617l-3.45,-2.308l4.6,1.317Zm21.5,-77.975l-16.579,-10.912l0.479,-2.471l16.771,11.137c-0.311,0.72 -0.536,1.474 -0.671,2.246Zm-7.058,1.312l-6.679,-4.458c-1.211,-1.26 -2.107,-2.787 -2.617,-4.458l15.971,10.717l0,1.058c-2.554,-1.058 -4.696,-2.054 -6.675,-2.858Zm9.042,-5.933l-16.937,-11.238l1.471,-1.633l16.771,11.038c-0.5,0.562 -0.938,1.175 -1.312,1.829l0.008,0.004Zm-11.5,84.617l13.637,8.887c-1.979,-0.321 -3.958,-0.642 -5.908,-1.125l-12.783,-8.438c1.667,0.325 3.354,0.55 5.046,0.675l0.008,0Zm14.946,-88.242l-16.608,-11.071l2.3,-1l16.45,10.75l-2.142,1.321Zm5.242,-2.471l-15.75,-10.4c1.054,-0.2 2.125,-0.317 3.196,-0.35l0.317,0l15.113,10.075c-0.977,0.139 -1.939,0.365 -2.875,0.675Zm-11.342,90.708l14.95,9.887l-4.087,0l-14.633,-9.625c1.312,-0.1 2.654,-0.258 3.771,-0.258l0,-0.004Zm7.729,-0.833l15.429,10.238l-3.45,0.321l-15.267,-10.204l3.292,-0.354l-0.004,0Zm11.15,-90.875l-13.642,-8.917c2.442,0.533 4.85,1.196 7.221,1.988l11.021,7.25c-1.629,-0.158 -3.1,-0.317 -4.6,-0.317l0,-0.004Zm-4.729,89.242l15.975,10.554c-1.042,0.317 -2.113,0.533 -3.196,0.642l-15.779,-10.396l3,-0.8Zm5.75,-2.15l16.421,10.717l-2.65,0.996l-16.263,-10.721l2.492,-0.992Zm4.921,-2.633l16.579,10.875l-2.142,1.158l-16.579,-10.875c0.833,-0.354 1.471,-0.833 2.142,-1.158Zm5.75,-82.658l-4.279,-2.792l0.829,-2.15l12.458,8.408c-2.917,-1.375 -5.925,-2.533 -9.008,-3.467Zm-1.663,79.517l16.771,10.875l-1.821,1.508l-16.579,-10.908l1.629,-1.475Zm15.783,-76.05l-16.583,-11.042l0.642,-2.146l16.737,10.971c-0.213,0.757 -0.479,1.497 -0.796,2.217Zm-14.121,-17.971l16.737,11.042c-0.187,0.747 -0.465,1.467 -0.829,2.146l-16.737,-11.037l0.829,-2.15Zm1.95,90.392l16.771,10.879l-1.5,1.667l-16.742,-10.908l1.471,-1.637Zm15.779,-81.983l-16.642,-11.042l0.667,-2.146l16.933,11.196c-0.263,0.692 -0.583,1.354 -0.958,1.992Zm1.629,-4.3l-16.9,-11.2l0.642,-1.667l16.929,11.071c-0.112,0.633 -0.339,1.241 -0.671,1.792l0,0.004Zm-14.6,82.242l16.742,11.071l-1.25,1.762l-16.896,-11.229c0.5,-0.508 0.967,-1.042 1.404,-1.604Zm12.971,-24.387l-11.179,-7.446c-0.321,-0.479 -0.479,-1.154 -0.8,-1.792l4.25,2.792c2.767,1.867 5.358,3.992 7.729,6.35l0,0.096Zm-10.829,19.767l16.737,11.042l-0.829,1.988l-16.9,-10.975l0.992,-2.054Zm17.571,8.437l-16.775,-11.062c0.333,-0.733 0.562,-1.512 0.667,-2.313l16.421,11.071l-0.317,2.308l0.004,-0.004Zm-0.513,-18.158l-15.271,-10.042l-0.637,-3.213l14.279,9.625c0.604,1.146 1.15,2.325 1.629,3.529l0,0.1Zm-14.95,-0.642l16.45,10.875c0.033,0.829 -0.033,1.658 -0.192,2.471l-16.417,-10.875c0,-0.933 0.158,-1.767 0.158,-2.571l0,0.1Zm16.258,7.571l-15.971,-10.717c0.033,-0.935 -0.032,-1.87 -0.192,-2.792l15.971,10.554c0.142,0.946 0.208,1.904 0.192,2.858l0,0.096Zm18.879,-95.271l20.383,0l0,67.963c0,22.108 10.029,31.512 27.408,31.512c17.375,0 28.079,-9.242 28.079,-31.512l0,-67.958l20.379,0l0,67.958c0,34.625 -19.55,50.154 -48.458,50.154c-28.912,0 -47.917,-15.529 -47.917,-50.154l0.125,-67.958l0,-0.004Zm23.321,4.625l16.258,10.713l0,2.633l-16.258,-10.717l0,-2.633l0,0.004Zm0,5.933l16.258,10.717l0,2.633l-16.258,-10.721l0,-2.629Zm0,5.938l16.258,10.717l0,2.629l-16.258,-10.587l0,-2.758Zm0,5.933l16.258,10.721l0,2.629l-16.258,-10.717l0,-2.633Zm0,5.937l16.258,10.717l0,2.633l-16.258,-10.75l0,-2.6Zm0,5.938l16.258,10.621l0,2.667l-16.258,-10.75l0,-2.542l0,0.004Zm0,5.938l16.258,10.717l0,2.663l-16.258,-10.75l0,-2.629Zm0,5.933l16.258,10.717l0,2.667l-16.258,-10.721l0,-2.662Zm0,5.937l16.258,10.75l0,2.629l-16.258,-10.717l0,-2.662Zm0,5.938l16.258,10.75l0,2.629l-16.258,-10.717l0,-2.667l0,0.004Zm0,5.933l16.258,10.75l0,2.633l-16.258,-10.717l0,-2.667Zm0,8.762c-0.079,-0.929 -0.079,-1.863 0,-2.792l16.258,10.875l0,2.6l-16.258,-10.683Zm0.35,3.467l15.975,10.554l0,2.792l-15.429,-10.204c-0.219,-1.034 -0.347,-2.085 -0.383,-3.142l-0.162,0Zm2.108,7.217l14.792,9.625c0.113,0.917 0.338,1.808 0.671,2.667c-0.339,0.028 -0.68,-0.028 -0.992,-0.162l-12.325,-7.954c-0.81,-1.337 -1.526,-2.73 -2.142,-4.167l-0.004,-0.008Zm7.25,36.133l3.612,0.671l11.467,7.575c-3.383,-1.115 -6.605,-2.668 -9.583,-4.621l-5.492,-3.625l-0.004,0Zm22.938,10.267l-13.417,-8.917l4.25,0l14.121,9.4c-1.758,0 -3.258,-0.162 -4.954,-0.483Zm-4.408,-8.917c1.312,0 2.458,-0.167 3.612,-0.167l15.108,10.079l-3.929,0l-14.792,-9.917l0,0.004Zm23.129,9.4l-15.271,-10.042l2.971,-0.679l15.942,10.4c-1.193,0.194 -2.399,0.301 -3.608,0.321l-0.033,0Zm-5.942,-12.354l15.971,10.554c-1.008,0.196 -2,0.458 -2.971,0.804l-15.554,-10.587l2.554,-0.771Zm19.392,9.4l-15.975,-10.75l2.3,-0.958l16.262,10.712l-2.588,1l0,-0.004Zm5.429,-2.308l-16.613,-10.913c0.779,-0.321 1.5,-0.767 2.142,-1.312l16.579,10.875l-2.108,1.35Zm4.633,-3.113l-16.675,-10.75l1.658,-1.475l16.742,11.038l-1.725,1.188Zm3.958,-3.208l-16.771,-11.042l1.662,-1.475l16.833,11.071l-1.725,1.446Zm3.45,-3.625l-16.929,-11.042l1.308,-1.829l17.092,11.104c-0.671,0.642 -0.992,1.312 -1.471,1.796l0,-0.033l0,0.004Zm2.621,-3.95l-16.738,-11.229c0.438,-0.633 0.821,-1.296 1.15,-1.992l16.738,11.167c-0.318,0.729 -0.703,1.426 -1.15,2.083l0,-0.029Zm2.458,-4.458l-16.738,-11.233c0.333,-0.625 0.6,-1.279 0.8,-1.958l16.771,11.042l-0.833,2.15Zm1.821,-4.783l-16.771,-11.071c0,-0.8 0.512,-1.475 0.671,-2.117l16.742,11.071c-0.288,0.692 -0.5,1.413 -0.642,2.15l0,-0.033Zm1.312,-5.1l-16.583,-10.913l0.483,-2.308l16.579,10.908l-0.479,2.313Zm0.988,-5.296l-16.608,-10.875c0.208,-0.812 0.325,-1.642 0.35,-2.475l16.417,10.879c0,0.804 -0.158,1.667 -0.158,2.5l0,-0.029Zm0.479,-5.617l-16.417,-10.875c0.079,-0.822 0.079,-1.649 0,-2.471l16.579,10.875c0,0.867 -0.162,1.7 -0.162,2.504l0,-0.033Zm0.162,-70.592l-16.262,-10.717l0,-2.633l16.262,10.875l0,2.475Zm-16.262,-7.925l16.262,10.717l0,2.662l-16.262,-10.717l0,-2.667l0,0.004Zm0,5.933l16.262,10.717l0,2.667l-16.262,-10.654l0,-2.729Zm0,5.938l16.262,10.75l0,2.629l-16.262,-10.717l0,-2.662Zm0,5.938l16.262,10.75l0,2.567l-16.262,-10.721l0,-2.596Zm0,5.967l16.262,10.717l0,2.633l-16.262,-10.717l0,-2.633Zm0,5.937l16.262,10.717l0,2.629l-16.262,-10.717l0,-2.629Zm0,5.937l16.262,10.717l0,2.629l-16.262,-10.717l0,-2.629Zm0,5.933l16.262,10.717l0,2.633l-16.262,-10.717l0,-2.633Zm0,5.938l16.262,10.717l0,2.633l-16.262,-10.721l0,-2.629Zm0,5.937l16.262,10.717l0,2.629l-16.262,-10.717l0,-2.629Zm0,5.933l16.262,10.721l0,2.725l-16.262,-10.717l0,-2.729Zm145.667,-11.679l0,49.642c-13.218,8.842 -28.82,13.454 -44.721,13.221c-39.1,0 -65.042,-25.671 -65.042,-60.071c0,-33.467 28.083,-59.875 62.229,-59.875c25.779,0 40.729,9.4 40.729,9.4l-7.058,17.488c-9.452,-4.557 -19.737,-7.134 -30.221,-7.571c-27.088,-0 -43.667,17.133 -43.667,40.912c0,23.233 17.729,40.4 41.529,40.4c9.083,0.033 18.096,-1.533 26.642,-4.625l0,-20.596l-32.329,0l0,-18.325l51.908,0Zm-84.75,0.483l16.421,10.908c0.083,0.821 0.083,1.65 0,2.471l-16.417,-10.717l0,-2.667l-0.004,0.004Zm0.163,5.933l15.971,10.558l0,2.825l-15.75,-10.558c-0.152,-0.934 -0.226,-1.879 -0.221,-2.825Zm16.771,1.833l-16.579,-10.879l0.321,-2.471l16.738,10.971l-0.479,2.375l0,0.004Zm-15.654,4.779l15.429,10.233c0.158,1.083 0.379,2.158 0.671,3.208l-15.108,-10.042l-0.992,-3.4Zm16.933,-9.883l-16.933,-11.071c0.212,-0.742 0.492,-1.458 0.833,-2.15l16.579,11.071c-0.133,0.733 -0.337,1.454 -0.608,2.15l0.129,0Zm1.788,-4.812l-16.9,-11.042l0.992,-2.146l16.771,11.1l-0.862,2.083l-0,0.004Zm-15.588,22.783l13.958,9.238l1.308,3.625l-12.488,-8.404c-1.12,-1.382 -2.095,-2.876 -2.908,-4.458l0.129,-0Zm17.888,-27.054l-16.9,-11.229c0.387,-0.633 0.825,-1.233 1.312,-1.796l16.608,11.037l-1.021,1.988Zm2.683,-4.233l-16.771,-11.2l1.471,-1.667l16.771,11.229l-1.471,1.637Zm3.45,-3.625l-16.771,-11.042l1.821,-1.667l16.738,11.071c-0.676,0.489 -1.278,1.073 -1.788,1.733l0,-0.096Zm4.088,-3.208l-16.738,-11.042l2.142,-1.154l16.579,10.875c-0.69,0.395 -1.353,0.836 -1.983,1.321Zm-5.683,85.292l-7.379,-4.946c1.788,0.483 3.767,0.833 5.75,1.154l11.658,7.767c-3.442,-1.062 -6.795,-2.392 -10.029,-3.979l0,0.004Zm10.283,-88.083l-16.417,-10.879l2.458,-1.154l16.258,10.875l-2.3,1.158Zm5.433,-2.471l-15.975,-10.558c0.962,-0.298 1.946,-0.523 2.942,-0.675l15.65,10.492l-2.617,0.742Zm2.3,96.487l-13.321,-8.887c1.471,0.183 2.954,0.292 4.438,0.321l13.958,9.242c-1.702,-0.136 -3.396,-0.361 -5.075,-0.675Zm4.088,-98.125l-15.717,-10.396c1.142,-0.2 2.292,-0.317 3.45,-0.354l15.717,10.237l-3.45,0.512Zm-11.658,45.179l3.192,0l14.633,9.625l-3.196,0l-14.629,-9.625Zm18.304,54.1l-14.633,-9.625c1.342,0 2.492,-0.162 3.804,-0.162l14.917,9.883c-1.363,0.051 -2.728,0.019 -4.087,-0.096Zm0.667,-100.275l-14.788,-9.917c1.488,0.025 2.971,0.142 4.442,0.354l14.279,9.404c-1.28,-0.023 -2.56,0.029 -3.833,0.158l-0.1,0Zm3.933,55.896l-14.792,-9.625l3.958,0l12.779,8.408l0,1.317l-1.946,-0.1Zm4.087,44.379l-15.079,-10.042l3.45,-0.517l15.625,10.238l-3.996,0.321Zm1.342,-100.113l-12.779,-8.408l6.9,1.958l10.833,7.283l-4.954,-0.833Zm-7.154,46.013l3.608,2.313l0,2.792l-7.542,-5.104l3.933,0Zm13.8,53.267l-15.75,-10.367l2.938,-0.671l15.975,10.554l-3.167,0.483l0.004,0Zm6.9,-1.317l-15.975,-10.717c0.904,-0.192 1.792,-0.458 2.654,-0.804l16.225,10.721l-2.904,0.8Zm-7.604,-13.508l16.417,10.875l-2.458,0.833l-16.417,-10.712l2.458,-0.996Zm7.221,-81.667l-6.392,-4.104l0.833,-2.15l13.637,9.083c-1.788,-0.675 -4.567,-1.833 -8.017,-2.825l-0.062,0l0,-0.004Zm-3.613,-10.875l16.742,11.042l-0.833,1.988l-16.738,-11.042l0.833,-1.987l-0.004,0Zm15.975,102.104l-16.387,-10.875l2.3,-1l16.579,10.879l-2.492,0.996Zm-14.121,-106.888l16.9,11.042l-0.992,2.15l-16.579,-11.042l0.671,-2.15Zm1.979,-4.621l16.583,11.042l-0.8,2.15l-16.612,-11.042l0.833,-2.15l-0.004,0Zm17.412,109.1l-16.742,-11.038c0.8,-0.354 1.471,-0.833 2.108,-1.154l16.933,11.042l-2.3,1.15Zm0,-100.304l-16.742,-11.042l0.642,-1.475c16.258,11.042 16.417,11.042 16.608,11.042l-0.508,1.475Zm4.758,97.513l-16.737,-10.908l1.979,-1.317l17.092,11.167l-2.333,1.058Zm-13.8,-59.071l16.258,10.717l0,2.662l-16.258,-10.717l0,-2.667l0,0.004Zm0,5.775l16.579,11.133l0,2.667l-16.258,-10.917l-0.321,-2.883Zm0,5.933l16.258,10.912l0,2.629l-16.258,-10.908l0,-2.633Zm0,5.938l16.258,10.912l0,2.629l-16.258,-10.717l0,-2.825Zm0,5.937l16.258,10.908l0,2.633l-16.258,-10.875l0,-2.667Zm0,5.938l16.258,10.908l0,2.629l-16.258,-10.717l0,-2.821Zm0,5.967l16.258,10.875l0,2.633l-16.258,-10.717l0,-2.792Zm0,6.096l16.258,10.717l0,2.633l-16.258,-10.875l0,-2.475Zm104.621,-8.825l-49.613,0l-10.125,23.104l-21.342,0l54.308,-116.958l4.567,0l54.304,116.958l-21.85,0l-10.25,-23.104Zm-66.35,26.058l14.758,9.625l-4.092,0l-14.629,-9.625l3.962,0Zm8.688,0l14.95,9.917l-3.929,0l-14.792,-9.625l3.771,-0.292Zm1.979,-4.783l16.9,11.008l-0.992,2.15l-16.771,-11.167l0.862,-1.992Zm2.142,-4.621l16.737,11.071l-0.829,2.15l-16.9,-11.071l0.992,-2.15Zm1.95,-4.621l16.771,11.071l-0.833,2.15l-16.896,-11.071l0.958,-2.15Zm1.979,-4.621l16.737,11.233l-0.796,1.988l-16.933,-11.071l0.992,-2.15Zm1.979,-4.425l0.321,0l16.579,11.038l-0.992,1.988l-16.737,-11.071l0.833,-1.958l-0.004,0.004Zm5.242,-19.254l35.137,0l-17.571,-39.917l-17.567,39.917Zm3.958,19.25l14.758,9.629l-4.121,0l-14.629,-9.625l3.992,0l0,-0.004Zm0.8,-23.1l1.5,0.833l-1.821,0l0.321,-0.833Zm1.15,-2.633l0.992,-1.988l8.367,5.454l-4.087,0l-5.271,-3.467Zm2.971,-6.608l15.3,10.075l-4.15,0l-11.821,-7.925l0.671,-2.15Zm4.087,32.346l14.633,9.625l-3.962,0l-14.758,-9.625l4.087,0Zm-1.946,-36.967l16.738,11.071l-0.992,2.117l-16.737,-11.104l0.992,-2.083Zm16.579,7.767l-15.625,-10.237l0.992,-2.15l12.971,8.758c0.488,1.242 1.042,2.45 1.663,3.625l0,0.004Zm-3.771,-8.408l-9.583,-6.417l0.833,-2.15l7.087,4.875l1.662,3.692Zm-3.8,-8.25l-3.929,-2.821l0.829,-1.988l1.629,0.992l1.471,3.821l0,-0.004Zm1.821,45.858l14.792,9.625l-4.125,0l-14.596,-9.625l3.929,0Zm17.729,-83.013l1.625,3.625l-14.275,-9.625l-1.629,-3.625l14.279,9.625Zm1.979,92.862l-14.792,-9.625l4.125,0l13.446,8.887l0.35,0.833l-3.129,-0.096Zm-12.492,-94.017l14.279,9.625l1.821,3.787l-14.279,-9.404l-1.821,-4.008Zm4.125,8.567l14.275,9.625l1.792,3.817l-14.279,-9.433l-1.792,-4.008l0.004,0Zm6.546,75.725l0.833,0.642l1.625,3.625l-6.387,-4.267l3.929,0Zm-2.621,-67.158l14.279,9.625l1.821,3.787l-14.279,-9.4l-1.821,-4.013Zm4.092,8.758l14.308,9.404l1.629,3.788l-14.117,-9.404l-1.821,-3.788Zm3.958,8.571l14.154,9.271l1.821,3.788l-14.312,-9.404l-1.663,-3.654Zm4.092,8.404l14.15,9.371l1.629,3.817l-13.958,-9.4l-1.821,-3.788Zm3.958,8.567l14.121,9.404l1.567,3.85l-13.958,-9.4l-1.729,-3.854Zm3.929,8.571l13.958,9.242l1.825,3.946l-13.958,-9.208l-1.825,-3.979Zm3.962,8.533l13.929,9.242l1.821,3.979l-13.958,-9.242l-1.792,-3.979Zm4.6,38.7l14.758,9.625l-4.087,0l-14.633,-9.625l3.962,0Zm-0.671,-30l14.121,9.238l1.625,3.788l-13.958,-9.242l-1.788,-3.788l0,0.004Zm3.867,8.404l14.117,9.4l1.821,3.788l-14.279,-9.4l-1.658,-3.792l0,0.004Zm5.587,21.596l14.792,9.625l-3.958,0l-14.763,-9.625l3.929,0Zm-1.562,-13.029l14.117,9.404l1.792,3.625l-14.121,-9.208l-1.792,-3.821l0.004,-0Zm3.929,8.6l14.117,9.208l1.821,3.821l-14.117,-9.242l-1.821,-3.788Zm31.208,-114.492l36.929,0c30.696,0 46.158,16.975 46.158,41.233c0,16.042 -6.583,28.721 -21.021,35.458l29.55,39.275l-23.8,0l-24.467,-34.142c-3.279,0.321 -6.729,0.483 -10.35,0.483l-12.779,0l0,33.658l-20.35,0l0.129,-115.967Zm10.158,118.917l14.792,9.629l-4.125,0l-14.596,-9.625l3.929,0l-0,-0.004Zm9.042,0l14.629,9.629l-3.958,0l-14.792,-9.625l4.121,0l0,-0.004Zm1.15,-100.113l0,45.375l15.108,0c19.167,0 25.554,-10.237 25.554,-22.946c0,-12.708 -6.387,-22.458 -25.554,-22.458l-15.108,0.029Zm4.6,2.954l14.596,9.625l0,2.633l-16.258,-10.721l0,-1.667l1.663,0.125l0,0.004Zm-1.663,4.971l16.258,10.721l0,2.629l-16.258,-10.717l0,-2.633Zm0,5.937l16.258,10.717l0,2.633l-16.258,-10.717l0,-2.633Zm0,5.937l16.258,10.717l0,2.629l-16.258,-10.717l0,-2.629Zm0,5.933l16.258,10.721l0,2.5l-16.258,-10.717l0,-2.504Zm12.333,16.654l-12.333,-8.083l0,-2.633l15.971,10.558c-1.208,0.125 -2.425,0.179 -3.642,0.158l0.004,0Zm-4.921,0l-4.125,0l-3.192,-2.15l0,-2.629l7.317,4.779Zm-7.413,24.9l16.258,10.75l0,2.633l-16.258,-10.717l0,-2.667Zm0,5.938l16.258,10.654l0,2.629l-16.258,-10.717l0,-2.567Zm0,5.937l16.258,10.75l0,2.629l-16.258,-10.717l0,-2.667l0,0.004Zm0,5.967l16.258,10.717l0,2.633l-16.258,-10.717l0,-2.633Zm0,5.938l16.258,10.717l0,2.633l-16.258,-10.717l0,-2.633Zm15.621,18.804l-15.621,-10.396l0,-2.471l16.258,10.717l0,2.15l-0.637,0Zm-7.792,-43.383l14.625,9.625l-3.958,0l-14.758,-9.625l4.092,0Zm2.65,-63.533l14.758,9.625l-4.092,0l-14.629,-9.625l3.962,0Zm6.067,63.375l3.929,2.625l3.612,5.104l-11.342,-7.571c1.292,0.029 2.583,-0.025 3.867,-0.162l-0.067,0l0,0.004Zm13.642,-53.625l-14.438,-9.625c1.758,0.167 3.508,0.433 5.238,0.804l10.862,7.283l0.988,1.475l-2.65,0.067l0,-0.004Zm31.05,56.25l-16.546,-10.746l2.138,-1.317l16.583,10.913c-0.671,0.458 -1.388,0.85 -2.142,1.154l-0.033,0l0,-0.004Zm-3.579,2.092l2.142,2.983l-10.667,-7.092l-3.962,-5.521l13.479,8.921l-0.992,0.708Zm-8.721,29.2l2.492,0l14.758,9.625l-2.617,0l-14.633,-9.625Zm16.771,-34.142l-16.579,-11.104l1.629,-1.475l16.742,11.1l-1.792,1.479Zm-11.5,-16.333l16.742,11.071l-1.471,1.792l-16.737,-11.033l1.467,-1.833l0,0.004Zm-0.158,23.775l10.667,7.125l3.804,4.942l-10.508,-6.933l-3.962,-5.133Zm4.6,26.7l14.758,9.625l-3.45,0l-14.6,-9.625l3.292,0Zm13.958,-41.717l-16.867,-11.042l1.15,-1.792l16.771,11.038l-1.054,1.796Zm-1.15,-47.683l-12.775,-8.567c-0.512,-1.317 -1.312,-2.471 -1.983,-3.787l6.392,4.108c3.243,2.26 6.073,5.06 8.367,8.279l0,-0.033Zm3.612,43.383l-16.771,-11.042l0.988,-1.988l16.771,11.071l-0.987,1.958Zm0.987,-34.975l-14.792,-9.883l-0.987,-3.208l14.279,9.4l1.5,3.692Zm0.8,30.354l-16.579,-11.042c0.158,-0.833 0.512,-1.471 0.671,-2.146l16.579,10.875c-0.125,0.808 -0.354,1.596 -0.671,2.346l0,-0.033Zm1.308,-5.1l-16.579,-11.042l0.512,-2.308l16.417,11.004c-0.05,0.804 -0.188,1.601 -0.412,2.375l0.062,-0.029Zm0,-17.808l-15.75,-10.558l-0.475,-2.825l15.588,10.237l0.637,3.146Zm0.671,12.35l-16.417,-10.875c0.079,-0.875 0.079,-1.758 0,-2.633l16.417,10.879c0.075,0.843 0.075,1.691 0,2.533l0,0.096Zm0.163,-5.933l-16.263,-10.717c0,-1 -0.158,-1.8 -0.158,-2.792l15.971,10.717l0.45,2.792Zm-15.975,52.142l10.704,7.092l3.929,5.104l-10.671,-6.933l-3.958,-5.263l-0.004,0Zm4.6,14.825l14.633,9.625l-3.929,0l-14.792,-9.625l4.087,0Zm4.283,-3.208l10.829,7.092l3.992,5.583l-14.121,-9.404l1.629,0l-2.333,-3.271l0.004,0Zm101.675,-115.679l20.35,0l0,97.167l54.692,0l0,18.8l-75.042,0l0,-115.967Zm13.129,118.917l14.633,9.629l-3.958,0l-14.763,-9.625l4.092,0l-0.004,-0.004Zm8.883,0l14.758,9.629l-4.087,0l-14.633,-9.625l3.962,0l0,-0.004Zm17.729,-103.9l-16.258,-10.717l0,-2.308l16.1,10.846l0.158,2.179Zm-16.258,-7.925l16.258,10.717l0,2.633l-16.417,-10.812l0.158,-2.538Zm0,5.938l16.258,10.717l0,2.633l-16.258,-10.721l0,-2.629Zm0,5.937l16.258,10.717l0,2.629l-16.258,-10.717l0,-2.629Zm0,5.933l16.258,10.721l0,2.662l-16.258,-10.75l0,-2.638l0,0.004Zm0,5.938l16.1,10.875l0,2.667l-16.263,-10.717l0.163,-2.825Zm0,5.938l16.258,10.717l0,2.667l-16.258,-10.721l0,-2.667l0,0.004Zm0,5.937l16.258,10.717l0,2.662l-16.258,-10.717l0,-2.667l0,0.004Zm0,5.933l16.258,10.75l0,2.633l-16.417,-10.688l0.158,-2.696Zm0,5.971l16.258,10.717l0,2.629l-16.258,-10.717l0,-2.629Zm0,5.933l16.258,10.721l0,2.533l-16.258,-10.717l0,-2.538Zm0,5.938l16.258,10.717l0,2.633l-16.258,-10.717l0,-2.633Zm0,5.938l16.258,10.717l0,2.629l-16.258,-10.717l0,-2.629Zm0,5.933l16.258,10.721l0,2.629l-16.258,-10.717l0,-2.633Zm0,5.938l14.95,9.883l-3.962,0l-10.987,-7.25l0,-2.633Zm6.067,9.883l-3.929,0l-2.138,-1.317l0,-2.629l6.067,3.946Zm1.471,24.742l14.629,9.625l-4.087,0l-14.792,-9.625l4.25,0Zm8.879,0l14.792,9.625l-3.958,0l-14.763,-9.625l3.929,0Zm9.042,0l14.6,9.625l-4.092,0l-14.629,-9.625l4.121,0Zm9.008,0l14.629,9.625l-3.929,0l-14.792,-9.625l4.092,0Zm8.879,0l14.792,9.625l-3.958,0l-14.763,-9.625l3.929,0Zm9.042,0l14.6,9.625l-3.929,0l-14.633,-9.625l3.962,0Zm2.3,-16.042l16.258,10.712l0,2.471l-16.258,-10.717l0,-2.471l0,0.004Zm0,5.933l16.258,10.558l0,2.567l-16.258,-10.721l0,-2.404Zm0,5.937l16.1,10.396l0,2.629l-16.258,-10.717l0.158,-2.308Z" style="fill:#263b80;fill-rule:nonzero;"/><path d="M906.617,315.467l-49.617,0l-9.933,23.104l-21.338,0l54.304,-116.958l4.6,0l54.304,116.958l-21.85,0l-10.475,-23.104l0.004,0Zm-66.35,26.058l14.758,9.625l-4.087,0l-14.633,-9.625l3.962,0Zm8.688,0l14.95,9.917l-4.054,0l-14.792,-9.625l3.896,-0.292Zm1.983,-4.783l16.896,11.008l-0.958,2.15l-16.608,-11.167l0.667,-1.992l0.004,0Zm2.138,-4.621l16.742,11.071l-0.833,2.15l-16.896,-11.071l0.987,-2.15Zm1.95,-4.621l16.771,11.071l-0.833,2.15l-16.896,-11.071l0.958,-2.15Zm1.979,-4.621l16.742,11.233l-0.8,1.988l-16.929,-11.071l0.987,-2.15Zm1.983,-4.425l0.317,0l16.517,11.038l-0.992,1.988l-16.738,-11.071l0.896,-1.958l0,0.004Zm5.238,-19.254l35.137,0l-17.567,-39.917l-17.571,39.917Zm3.958,19.25l14.763,9.629l-3.929,0l-14.633,-9.625l3.804,0l-0.004,-0.004Zm0.8,-23.1l1.5,0.833l-1.817,0l0.317,-0.833Zm1.15,-2.633l0.992,-1.988l8.371,5.454l-4.092,0l-5.271,-3.467Zm2.971,-6.608l15.271,10.075l-4.121,0l-11.979,-7.925l0.833,-2.15l-0.004,0Zm4.092,32.346l14.629,9.625l-3.929,0l-14.792,-9.625l4.092,0Zm-1.95,-36.967l16.737,11.071l-0.987,2.117l-16.742,-11.104l0.992,-2.083Zm16.546,7.767l-15.588,-10.237l0.958,-2.15l13,8.758c0.462,1.246 1.008,2.458 1.629,3.625l0,0.004Zm-3.767,-8.408l-9.583,-6.417l0.829,-2.15l7.125,4.875l1.625,3.692l0.004,0Zm-3.804,-8.25l-3.929,-2.821l0.833,-1.988l1.625,0.992l1.471,3.821l0,-0.004Zm1.821,45.858l14.792,9.625l-4.121,0l-14.6,-9.625l3.929,0Zm17.762,-83.013l1.663,3.625l-14.312,-9.625l-1.629,-3.625l14.279,9.625Zm1.979,92.862l-14.792,-9.625l3.996,0l13.45,8.887l0.35,0.833l-3,-0.096l-0.004,0Zm-12.487,-94.017l14.279,9.625l1.821,3.787l-14.408,-9.596l-1.692,-3.817Zm4.121,8.567l14.279,9.625l1.788,3.817l-14.279,-9.433l-1.792,-4.008l0.004,0Zm6.546,75.725l0.833,0.642l1.625,3.625l-6.387,-4.267l3.929,0Zm-2.583,-67.288l14.275,9.625l1.821,3.792l-14.279,-9.404l-1.821,-4.013l0.004,0Zm4.117,8.763l14.279,9.4l1.629,3.788l-14.117,-9.404l-1.792,-3.783Zm3.929,8.567l14.312,9.4l1.821,3.788l-14.279,-9.404l-1.854,-3.783Zm4.058,8.533l14.15,9.371l1.629,3.817l-13.958,-9.4l-1.821,-3.788Zm3.867,8.633l14.117,9.4l1.854,3.788l-13.958,-9.4l-2.013,-3.792l0,0.004Zm3.929,8.567l13.958,9.242l1.821,3.946l-13.958,-9.208l-1.821,-3.979Zm4.054,8.471l13.958,9.242l1.792,3.979l-13.958,-9.242l-1.792,-3.979Zm4.6,38.762l14.758,9.625l-4.087,0l-14.629,-9.625l3.958,0Zm-0.667,-30l14.117,9.242l1.663,3.783l-13.992,-9.242l-1.792,-3.783l0.004,0Zm4.054,8.342l14.121,9.4l1.821,3.788l-14.279,-9.4l-1.663,-3.792l-0,0.004Zm5.592,21.596l14.792,9.625l-4.092,0l-14.758,-9.625l4.058,0Zm-1.758,-13.029l14.121,9.404l1.788,3.625l-14.121,-9.208l-1.787,-3.821Zm3.929,8.6l14.121,9.208l1.821,3.821l-14.121,-9.242l-1.821,-3.788Zm31.208,-115.163l6.392,0l71.425,74.733l0,-74.063l20.383,0l0,116.8l-5.433,0l-72.417,-72.737l0,71.908l-20.35,0l0,-116.642Zm9.362,119.592l14.758,9.625l-4.092,0l-14.629,-9.625l3.962,0Zm9.008,0l14.629,9.625l-3.958,0l-14.763,-9.625l4.092,0Zm4.95,-67.579l6.708,6.738l-6.708,-4.425l0,-2.312Zm0,5.583l16.229,10.913l0,2.758l-16.229,-10.875l0,-2.796Zm0,5.971l16.229,10.908l0,2.629l-16.229,-10.875l0,-2.667l0,0.004Zm0,5.933l16.229,10.875l0,2.633l-16.229,-10.875l0,-2.633Zm0,5.937l16.229,10.875l0,2.633l-16.229,-10.875l0,-2.633Zm0,5.938l16.229,10.875l0,2.633l-16.229,-10.783l0,-2.725Zm0,5.933l16.229,10.879l0,2.633l-16.229,-10.879l0,-2.633Zm0,5.937l16.229,10.875l0,2.633l-16.229,-10.875l0,-2.633Zm0,5.938l16.229,10.875l0,2.633l-16.229,-10.875l0,-2.633Zm0,5.938l16.229,10.875l0,2.471l-16.229,-10.717l0,-2.629Zm0,5.933l16.229,10.717l0,2.633l-16.229,-10.717l0,-2.633Zm14.6,18.325l-14.6,-9.625l0,-2.633l16.229,10.717l0,1.667l-1.629,-0.125Zm59.287,-8.921l2.938,0l14.792,9.625l-3.196,0l-14.533,-9.625Zm20.35,-104.292l-16.263,-10.713l0,-2.633l11.183,7.25l5.079,3.438l0,2.663l0,-0.004Zm-16.263,-7.921l16.263,10.75l0,2.629l-16.263,-10.717l0,-2.667l0,0.004Zm0,5.933l16.263,10.75l0,2.633l-16.421,-10.846l0.158,-2.538Zm-0,5.971l16.263,10.717l0,2.633l-16.263,-10.721l0,-2.629Zm0,5.938l16.263,10.717l0,2.629l-16.263,-10.717l0,-2.629Zm0,5.933l16.263,10.717l0,2.633l-16.263,-10.717l0,-2.633Zm0,5.937l16.263,10.846l0,2.633l-16.263,-10.721l0,-2.758Zm0,5.938l16.263,10.717l0,2.629l-16.263,-10.717l0,-2.629Zm0,5.933l16.263,10.721l0,2.629l-16.263,-10.717l0,-2.633Zm0,5.938l16.263,10.717l0,2.633l-16.421,-10.687l0.158,-2.663Zm-0,5.937l16.263,10.717l0,2.633l-16.263,-10.721l0,-2.629Zm0,5.937l16.263,10.717l0,2.533l-16.263,-10.717l0,-2.533Zm0,5.933l16.263,10.717l0,2.667l-16.263,-10.75l0,-2.633Zm0,5.938l16.263,10.717l0,2.667l-16.263,-10.75l0,-2.633Zm0,5.938l16.263,10.717l0,2.667l-16.263,-10.75l0,-2.633Zm0,5.933l16.263,10.721l0,2.663l-16.263,-10.717l0,-2.667Zm0,5.938l16.263,10.75l0,2.633l-16.421,-10.558l0.158,-2.825Zm-0,5.938l16.263,10.75l0,2.629l-16.263,-10.717l0,-2.667l0,0.004Zm0,5.938l16.263,10.75l0,2.467l-16.263,-10.554l0,-2.667l0,0.004Zm0,5.967l16.263,10.654l0,2.471l-16.263,-10.717l0,-2.408Zm45.013,-114.492l43.508,0c35.808,0 61.75,24.258 61.75,57.758c0,33.5 -26.454,58.083 -61.75,58.083l-43.508,0l0,-115.846l0,0.004Zm9.583,118.917l14.596,9.629l-3.929,0l-14.792,-9.625l4.125,0l0,-0.004Zm8.846,0l14.792,9.629l-4.154,0l-14.629,-9.625l3.992,0l0,-0.004Zm1.983,-100.113l0,78.358l23.158,0c22.363,0 39.737,-16.333 39.737,-38.921c0,-22.592 -16.579,-39.438 -39.737,-39.438l-23.158,0Zm3.767,2.954l15.4,10.333l0,2.625l-16.263,-10.713l0,-2.15l0.862,-0.096Zm-0.796,5.454l16.258,10.717l0,2.667l-16.325,-10.75l0.067,-2.633Zm0,5.937l16.258,10.717l0,2.662l-16.258,-10.75l0,-2.629Zm0,5.933l16.258,10.717l0,2.667l-16.325,-10.75l0.067,-2.633Zm0,5.938l16.258,10.717l0,2.667l-16.258,-10.721l0,-2.662Zm0,5.937l16.258,10.75l0,2.629l-16.258,-10.717l0,-2.667l0,0.004Zm0,5.933l16.258,10.75l0,2.633l-16.258,-10.717l0,-2.667Zm0,5.971l16.258,10.717l0,2.633l-16.258,-10.721l0,-2.629Zm0,5.937l16.258,10.717l0,2.629l-16.258,-10.717l0,-2.629Zm0,5.933l16.258,10.717l0,2.633l-16.258,-10.717l0,-2.633Zm0,5.938l16.258,10.717l0,2.633l-16.325,-10.592l0.067,-2.758Zm0,8.567l0,-2.6l11.5,7.575l-3.963,0l-7.542,-4.975l0.004,0Zm0,3.208l2.617,1.637l-2.617,0l0,-1.637Zm4.087,26.375l14.792,9.629l-4.125,0l-14.754,-9.625l4.087,0l0,-0.004Zm5.75,-97.158l14.629,9.625l-3.958,0l-14.758,-9.625l4.087,0Zm3.196,97.162l14.596,9.625l-3.929,0l-14.792,-9.625l4.125,0Zm5.587,-97.167l14.758,9.625l-4.054,0l-14.633,-9.625l3.929,0Zm1.313,97.167l1.979,0l14.758,9.917l-4.087,0l-14.633,-9.629l1.983,-0.292l0,0.004Zm18.4,-87.408l-14.471,-9.625c1.821,0 3.45,0.479 5.271,0.8l13.287,8.917c-0.872,-0.075 -1.749,-0.075 -2.621,-0l-1.467,-0.092Zm3.192,97l-14.979,-9.688c1.146,-0.029 2.287,-0.137 3.417,-0.321l15.3,9.946c-1.258,0.154 -2.529,0.208 -3.8,0.158l0.062,-0.096Zm8.05,-0.671l-15.587,-10.237l2.937,-0.642l15.783,10.396l-3.133,0.483Zm6.9,-1.158l-15.971,-10.717c0.904,-0.204 1.792,-0.483 2.65,-0.833l16.263,10.717c-1,0.238 -1.983,0.546 -2.942,0.929l0,-0.096Zm6.229,-1.988l-16.258,-10.717l2.3,-1l16.45,10.721l-2.492,0.996Zm5.433,-2.312l-16.421,-10.717l2.3,-1.154l16.417,10.717c-0.722,0.531 -1.518,0.952 -2.362,1.25l0.067,-0.096Zm5.079,-2.629l-16.742,-10.783c0.692,-0.392 1.35,-0.833 1.983,-1.312l16.675,11.167l-1.917,0.929Zm4.437,-2.954l-16.8,-10.812l1.787,-1.475l16.771,11.229l-1.758,1.058Zm4.125,-3.208l-16.838,-10.812l1.663,-1.475l16.737,11.1l-1.567,1.188l0.004,0Zm3.446,-3.304l-16.737,-11.229l1.471,-1.479l16.738,11.042l-1.471,1.667Zm3.45,-3.788l-16.929,-11.071l1.308,-1.792l16.933,11.196l-1.312,1.667Zm-0.667,-71.588l-11.662,-7.767c-0.8,-1.475 -1.95,-3.208 -2.937,-4.621l0.638,0.517l4.6,3.208c3.536,2.44 6.718,5.354 9.458,8.662l-0.1,0l0.004,-0Zm3.608,67.608l-16.742,-11.196l1.15,-1.833l16.9,11.233l-1.308,1.796Zm-13.292,-17.292l16.833,11.133l-0.987,1.829l-16.9,-11.071l1.054,-1.896l0,0.004Zm16.742,-39.758l-14.442,-9.625c-0.406,-1.24 -0.896,-2.452 -1.467,-3.625l13.446,8.917l2.458,4.333l0.004,0Zm1.308,48.325l-16.738,-11.071l0.829,-2.121l16.737,11.2c-0.213,0.698 -0.513,1.367 -0.892,1.992l0.062,0Zm1.821,-4.783l-16.771,-11.071c0.192,-0.8 0.513,-1.475 0.671,-2.117l16.675,10.908l-0.575,2.279Zm-0,-35.65l-15.108,-10.042l-0.992,-3.208l14.95,9.917c0.421,1.075 0.742,2.196 0.958,3.333l0.192,0Zm-14.854,17.329l16.579,10.875l-0.479,2.504l-16.579,-11.071l0.479,-2.308Zm16.579,-10.042l-15.75,-10.558l-0.508,-2.987l15.621,10.4c0.304,1.025 0.517,2.079 0.638,3.142l-0,0.004Zm0.512,17.967l-16.583,-10.875c0.188,-0.817 0.292,-1.642 0.321,-2.475l16.583,10.879l-0.321,2.471Zm0.317,-11.708l-15.971,-10.562c0.027,-0.943 -0.026,-1.887 -0.158,-2.821l15.971,10.554l0.158,2.825l0,0.004Zm0,6.092l-16.258,-10.875l0,-2.471l16.417,10.717l0,0.833c0,0.642 -0.158,1.154 -0.158,1.796Z" style="fill:#263b80;fill-rule:nonzero;"/></g><path d="M800.913,142.383l414.925,0m-1212.067,0l423.517,0" style="fill:none;stroke:#263b80;stroke-width:8.33px;"/><g><path d="M481.658,124.479l-12.971,7.638l-3.833,-6.417l33.033,-19.575l3.863,6.579l-12.938,7.667l24.854,42.392l-7.154,4.233l-24.854,-42.517Zm47.088,-31.733l33.508,-10.175l2.333,7.733l-25.558,7.767l4.571,15.433l21.946,-6.417l2.171,7.317l-21.817,6.608l4.821,16.046l25.558,-7.767l2.362,7.767l-33.542,10.171l-16.354,-54.483Zm85.512,18.929l-10.958,21.725l-9.325,0.483l15.271,-30.004l-17.092,-26.792l9.392,-0.483l11.917,19.25l10,-20.375l9.263,-0.479l-14.758,28.496l18.717,28.204l-9.392,0.479l-13.033,-20.504Zm71.367,14.825l-20.383,-4.137l-6.642,11.646l-8.625,-1.762l30.729,-51.725l6.804,1.375l8.337,59.654l-8.5,-1.733l-1.721,-13.317Zm-0.8,-7.958l-2.875,-25.925l-0.158,0l-12.779,22.783l15.812,3.142Zm36.383,18.1c2.204,5.321 6.288,9.652 11.471,12.162c6.387,3.079 10.783,2.321 13.192,-2.279c1.917,-3.787 0.896,-7.125 -3.033,-10.042c-1.821,-1.25 -3.867,-2.633 -6.042,-4.175c-3.467,-2.261 -6.033,-5.669 -7.25,-9.625c-1.015,-3.73 -0.58,-7.71 1.217,-11.133c1.81,-4.123 5.3,-7.279 9.583,-8.667c4.631,-1.287 9.588,-0.675 13.767,1.7c5.736,2.855 10.414,7.466 13.354,13.158l-7.283,4.108c-2.357,-4.258 -5.927,-7.722 -10.254,-9.95c-2.023,-1.083 -4.352,-1.456 -6.612,-1.058c-2.303,0.548 -4.214,2.158 -5.146,4.333c-0.725,1.5 -0.837,3.229 -0.317,4.812c0.775,2.1 2.196,3.9 4.054,5.133c1.25,0.9 2.942,2.083 5.146,3.529c3.783,2.284 6.542,5.943 7.696,10.208c0.85,3.758 0.354,7.7 -1.404,11.133c-5.046,9.625 -13.225,11.762 -24.533,6.417c-6.978,-3.278 -12.461,-9.083 -15.333,-16.237l7.729,-3.529Z" style="fill:#263b80;fill-rule:nonzero;"/></g></g></svg>